<svg xmlns="http://www.w3.org/2000/svg" xmlns:xlink="http://www.w3.org/1999/xlink" width="180" zoomAndPan="magnify" viewBox="0 0 135 30.000001" height="40" preserveAspectRatio="xMidYMid meet" version="1.0"><defs><g/><clipPath id="028a7a8124"><path d="M 2.175781 0 L 132.820312 0 L 132.820312 29.03125 L 2.175781 29.03125 Z M 2.175781 0 " clip-rule="nonzero"/></clipPath><clipPath id="5a16b8ed4e"><path d="M 58.941406 4.230469 L 128.542969 4.230469 L 128.542969 24.804688 L 58.941406 24.804688 Z M 58.941406 4.230469 " clip-rule="nonzero"/></clipPath><clipPath id="f81101cb15"><path d="M 60.394531 4.230469 L 127.015625 4.230469 C 127.816406 4.230469 128.46875 4.878906 128.46875 5.679688 L 128.46875 23.351562 C 128.46875 24.152344 127.816406 24.804688 127.015625 24.804688 L 60.394531 24.804688 C 59.59375 24.804688 58.941406 24.152344 58.941406 23.351562 L 58.941406 5.679688 C 58.941406 4.878906 59.59375 4.230469 60.394531 4.230469 Z M 60.394531 4.230469 " clip-rule="nonzero"/></clipPath><clipPath id="b70ad9b25f"><path d="M 0.941406 0.230469 L 70.527344 0.230469 L 70.527344 20.804688 L 0.941406 20.804688 Z M 0.941406 0.230469 " clip-rule="nonzero"/></clipPath><clipPath id="49c9b992dd"><path d="M 2.394531 0.230469 L 69.015625 0.230469 C 69.816406 0.230469 70.46875 0.878906 70.46875 1.679688 L 70.46875 19.351562 C 70.46875 20.152344 69.816406 20.804688 69.015625 20.804688 L 2.394531 20.804688 C 1.59375 20.804688 0.941406 20.152344 0.941406 19.351562 L 0.941406 1.679688 C 0.941406 0.878906 1.59375 0.230469 2.394531 0.230469 Z M 2.394531 0.230469 " clip-rule="nonzero"/></clipPath><clipPath id="89b215b684"><rect x="0" width="71" y="0" height="21"/></clipPath></defs><g clip-path="url(#028a7a8124)"><path fill="#ffffff" d="M 2.175781 0 L 132.824219 0 L 132.824219 29.03125 L 2.175781 29.03125 Z M 2.175781 0 " fill-opacity="1" fill-rule="nonzero"/><path fill="#ffffff" d="M 2.175781 0 L 132.824219 0 L 132.824219 29.03125 L 2.175781 29.03125 Z M 2.175781 0 " fill-opacity="1" fill-rule="nonzero"/></g><g clip-path="url(#5a16b8ed4e)"><g clip-path="url(#f81101cb15)"><g transform="matrix(1, 0, 0, 1, 58, 4)"><g clip-path="url(#89b215b684)"><g clip-path="url(#b70ad9b25f)"><g clip-path="url(#49c9b992dd)"><path fill="#ff3131" d="M 0.941406 0.230469 L 70.464844 0.230469 L 70.464844 20.804688 L 0.941406 20.804688 Z M 0.941406 0.230469 " fill-opacity="1" fill-rule="nonzero"/></g></g></g></g></g></g><g fill="#000000" fill-opacity="1"><g transform="translate(8.539564, 23.18675)"><g><path d="M 5.1875 -6.953125 L 5.1875 -2.625 L 12.75 -2.625 L 12.75 0 L 2.0625 0 L 2.0625 -15.828125 L 12.5625 -15.828125 L 12.5625 -13.203125 L 5.1875 -13.203125 L 5.1875 -9.5 L 11.640625 -9.5 L 11.640625 -6.953125 Z M 5.1875 -6.953125 "/></g></g></g><g fill="#000000" fill-opacity="1"><g transform="translate(22.147527, 23.18675)"><g><path d="M 7.75 -15.828125 C 10.320312 -15.828125 12.285156 -15.160156 13.640625 -13.828125 C 14.992188 -12.503906 15.671875 -10.53125 15.671875 -7.90625 C 15.671875 -5.300781 14.992188 -3.332031 13.640625 -2 C 12.285156 -0.664062 10.320312 0 7.75 0 L 2.0625 0 L 2.0625 -15.828125 Z M 7.5625 -2.625 C 9.195312 -2.625 10.414062 -3.039062 11.21875 -3.875 C 12.03125 -4.707031 12.4375 -6.050781 12.4375 -7.90625 C 12.4375 -9.769531 12.03125 -11.117188 11.21875 -11.953125 C 10.414062 -12.785156 9.195312 -13.203125 7.5625 -13.203125 L 5.1875 -13.203125 L 5.1875 -2.625 Z M 7.5625 -2.625 "/></g></g></g><g fill="#000000" fill-opacity="1"><g transform="translate(39.068166, 23.18675)"><g><path d="M 8.390625 0.234375 C 6.210938 0.234375 4.59375 -0.28125 3.53125 -1.3125 C 2.476562 -2.351562 1.953125 -3.894531 1.953125 -5.9375 L 1.953125 -15.828125 L 5.015625 -15.828125 L 5.015625 -5.953125 C 5.015625 -4.796875 5.289062 -3.925781 5.84375 -3.34375 C 6.40625 -2.769531 7.253906 -2.484375 8.390625 -2.484375 C 10.628906 -2.484375 11.75 -3.640625 11.75 -5.953125 L 11.75 -15.828125 L 14.828125 -15.828125 L 14.828125 -5.9375 C 14.828125 -3.894531 14.296875 -2.351562 13.234375 -1.3125 C 12.179688 -0.28125 10.566406 0.234375 8.390625 0.234375 Z M 8.390625 0.234375 "/></g></g></g><g fill="#ff3131" fill-opacity="1"><g transform="translate(55.853072, 23.18675)"><g/></g></g><g fill="#ffffff" fill-opacity="1"><g transform="translate(61.092487, 23.18675)"><g><path d="M 5.09375 0 L 2.0625 0 L 2.0625 -15.828125 L 5.640625 -15.828125 L 12 -5.625 L 12.28125 -5.671875 L 12.28125 -15.828125 L 15.28125 -15.828125 L 15.28125 0 L 12.078125 0 L 5.359375 -10.890625 L 5.09375 -10.84375 Z M 5.09375 0 "/></g></g></g><g fill="#ffffff" fill-opacity="1"><g transform="translate(78.446156, 23.18675)"><g><path d="M 5.1875 -6.953125 L 5.1875 -2.625 L 12.75 -2.625 L 12.75 0 L 2.0625 0 L 2.0625 -15.828125 L 12.5625 -15.828125 L 12.5625 -13.203125 L 5.1875 -13.203125 L 5.1875 -9.5 L 11.640625 -9.5 L 11.640625 -6.953125 Z M 5.1875 -6.953125 "/></g></g></g><g fill="#ffffff" fill-opacity="1"><g transform="translate(92.054119, 23.18675)"><g><path d="M 7.5625 0 L 4.0625 0 L 0.4375 -15.828125 L 3.546875 -15.828125 L 5.9375 -4.703125 L 6.21875 -4.703125 L 9.046875 -15.828125 L 11.71875 -15.828125 L 14.609375 -4.703125 L 14.890625 -4.703125 L 17.296875 -15.828125 L 20.296875 -15.828125 L 16.6875 0 L 13.171875 0 L 10.40625 -10.203125 L 10.171875 -10.203125 Z M 7.5625 0 "/></g></g></g><g fill="#ffffff" fill-opacity="1"><g transform="translate(112.861206, 23.18675)"><g><path d="M 7.015625 0.234375 C 5.921875 0.234375 4.941406 0.0976562 4.078125 -0.171875 C 3.222656 -0.441406 2.507812 -0.796875 1.9375 -1.234375 C 1.375 -1.679688 0.941406 -2.171875 0.640625 -2.703125 L 2.359375 -4.796875 L 2.625 -4.796875 C 3.101562 -4.085938 3.707031 -3.523438 4.4375 -3.109375 C 5.175781 -2.691406 6.035156 -2.484375 7.015625 -2.484375 C 7.847656 -2.484375 8.476562 -2.660156 8.90625 -3.015625 C 9.332031 -3.367188 9.546875 -3.851562 9.546875 -4.46875 C 9.546875 -4.84375 9.476562 -5.15625 9.34375 -5.40625 C 9.207031 -5.664062 8.976562 -5.882812 8.65625 -6.0625 C 8.34375 -6.238281 7.914062 -6.394531 7.375 -6.53125 L 5.34375 -7 C 3.914062 -7.320312 2.851562 -7.859375 2.15625 -8.609375 C 1.457031 -9.367188 1.109375 -10.347656 1.109375 -11.546875 C 1.109375 -12.441406 1.332031 -13.226562 1.78125 -13.90625 C 2.226562 -14.582031 2.878906 -15.109375 3.734375 -15.484375 C 4.585938 -15.867188 5.613281 -16.0625 6.8125 -16.0625 C 8.03125 -16.0625 9.070312 -15.898438 9.9375 -15.578125 C 10.8125 -15.253906 11.546875 -14.757812 12.140625 -14.09375 L 10.59375 -11.96875 L 10.328125 -11.96875 C 9.878906 -12.4375 9.363281 -12.785156 8.78125 -13.015625 C 8.207031 -13.253906 7.550781 -13.375 6.8125 -13.375 C 5.945312 -13.375 5.289062 -13.222656 4.84375 -12.921875 C 4.394531 -12.617188 4.171875 -12.203125 4.171875 -11.671875 C 4.171875 -11.171875 4.328125 -10.769531 4.640625 -10.46875 C 4.960938 -10.175781 5.507812 -9.945312 6.28125 -9.78125 L 8.359375 -9.359375 C 9.890625 -9.023438 11.003906 -8.46875 11.703125 -7.6875 C 12.398438 -6.914062 12.75 -5.910156 12.75 -4.671875 C 12.75 -3.679688 12.535156 -2.816406 12.109375 -2.078125 C 11.679688 -1.347656 11.035156 -0.78125 10.171875 -0.375 C 9.316406 0.03125 8.265625 0.234375 7.015625 0.234375 Z M 7.015625 0.234375 "/></g></g></g></svg>