<svg xmlns="http://www.w3.org/2000/svg" xmlns:xlink="http://www.w3.org/1999/xlink" width="270" zoomAndPan="magnify" viewBox="0 0 202.5 52.499999" height="70" preserveAspectRatio="xMidYMid meet" version="1.0"><defs><g/><clipPath id="50dd95402d"><path d="M 0.707031 0 L 201.296875 0 L 201.296875 52.003906 L 0.707031 52.003906 Z M 0.707031 0 " clip-rule="nonzero"/></clipPath></defs><g clip-path="url(#50dd95402d)"><path fill="#ffffff" d="M 0.707031 0 L 201.296875 0 L 201.296875 52.003906 L 0.707031 52.003906 Z M 0.707031 0 " fill-opacity="1" fill-rule="nonzero"/><path fill="#ffffff" d="M 0.707031 0 L 201.296875 0 L 201.296875 52.003906 L 0.707031 52.003906 Z M 0.707031 0 " fill-opacity="1" fill-rule="nonzero"/></g><g fill="#000000" fill-opacity="1"><g transform="translate(5.184417, 39.969337)"><g><path d="M 7.109375 -16.640625 L 7.03125 -13.515625 C 7.03125 -12.328125 7.207031 -11.441406 7.5625 -10.859375 C 7.925781 -10.285156 8.570312 -10 9.5 -10 C 10.425781 -10 11.3125 -10.328125 12.15625 -10.984375 C 13.007812 -11.640625 13.671875 -12.421875 14.140625 -13.328125 L 14.140625 -17.296875 C 14.140625 -19.390625 13.945312 -20.734375 13.5625 -21.328125 L 5.640625 -21.328125 C 6.617188 -20.578125 7.109375 -19.015625 7.109375 -16.640625 Z M 19.28125 -16.640625 L 19.078125 -4.0625 C 19.078125 -2 19.269531 -0.644531 19.65625 0 C 19.21875 0.175781 18.675781 0.265625 18.03125 0.265625 C 16.644531 0.265625 15.628906 -0.195312 14.984375 -1.125 C 14.335938 -2.050781 14.015625 -3.0625 14.015625 -4.15625 C 14.015625 -5.25 14.117188 -6.164062 14.328125 -6.90625 C 13.398438 -6.445312 12.445312 -6.21875 11.46875 -6.21875 C 9.28125 -6.21875 7.160156 -7.15625 5.109375 -9.03125 C 3.066406 -10.914062 2.046875 -12.785156 2.046875 -14.640625 C 2.046875 -17.316406 2.015625 -18.992188 1.953125 -19.671875 C 1.890625 -20.359375 1.726562 -20.910156 1.46875 -21.328125 C -1.4375 -21.398438 -2.890625 -22.554688 -2.890625 -24.796875 C -2.890625 -25.234375 -2.828125 -25.582031 -2.703125 -25.84375 L 19.65625 -25.84375 C 22.90625 -25.84375 24.53125 -24.75 24.53125 -22.5625 C 24.53125 -22.09375 24.4375 -21.679688 24.25 -21.328125 L 17.765625 -21.328125 C 18.773438 -20.546875 19.28125 -18.984375 19.28125 -16.640625 Z M 19.28125 -16.640625 "/></g></g></g><g fill="#000000" fill-opacity="1"><g transform="translate(27.281988, 39.969337)"><g><path d="M 7.421875 -18.625 L 10.8125 -18.578125 C 11.789062 -18.578125 12.28125 -18.9375 12.28125 -19.65625 C 12.28125 -19.96875 12.164062 -20.273438 11.9375 -20.578125 C 11.707031 -20.890625 11.410156 -21.140625 11.046875 -21.328125 L 2.15625 -21.328125 C -1.082031 -21.328125 -2.703125 -22.484375 -2.703125 -24.796875 C -2.703125 -25.234375 -2.640625 -25.582031 -2.515625 -25.84375 L 16.875 -25.84375 C 20.125 -25.84375 21.75 -24.75 21.75 -22.5625 C 21.75 -22.09375 21.65625 -21.679688 21.46875 -21.328125 L 14.453125 -21.328125 C 15.679688 -20.191406 16.296875 -18.914062 16.296875 -17.5 C 16.296875 -16.519531 15.9375 -15.707031 15.21875 -15.0625 C 14.5 -14.414062 13.457031 -14.09375 12.09375 -14.09375 L 8.65625 -14.140625 C 6.976562 -14.140625 6.140625 -13.519531 6.140625 -12.28125 C 6.140625 -11.84375 6.253906 -11.394531 6.484375 -10.9375 C 7.441406 -11.320312 8.488281 -11.515625 9.625 -11.515625 C 11.863281 -11.515625 13.789062 -10.769531 15.40625 -9.28125 C 17.03125 -7.800781 17.84375 -6.253906 17.84375 -4.640625 C 17.84375 -3.578125 17.5 -2.710938 16.8125 -2.046875 C 16.132812 -1.378906 15.328125 -1.046875 14.390625 -1.046875 C 13.453125 -1.046875 12.632812 -1.300781 11.9375 -1.8125 C 11.238281 -2.332031 10.828125 -3.054688 10.703125 -3.984375 C 11.628906 -4.109375 12.351562 -4.382812 12.875 -4.8125 C 13.40625 -5.238281 13.671875 -5.703125 13.671875 -6.203125 C 13.671875 -6.703125 13.492188 -7.09375 13.140625 -7.375 C 12.796875 -7.65625 12.304688 -7.796875 11.671875 -7.796875 C 10.484375 -7.796875 9.398438 -7.390625 8.421875 -6.578125 C 7.441406 -5.773438 6.953125 -4.671875 6.953125 -3.265625 C 6.953125 -1.859375 7.660156 -0.691406 9.078125 0.234375 C 10.492188 1.160156 12.128906 1.625 13.984375 1.625 C 14.703125 1.625 15.4375 1.546875 16.1875 1.390625 C 16.363281 1.753906 16.453125 2.171875 16.453125 2.640625 C 16.453125 3.117188 16.1875 3.546875 15.65625 3.921875 C 15.132812 4.296875 14.394531 4.484375 13.4375 4.484375 C 10.476562 4.484375 7.890625 3.535156 5.671875 1.640625 C 3.460938 -0.253906 2.359375 -2.5 2.359375 -5.09375 C 2.359375 -6.875 2.953125 -8.332031 4.140625 -9.46875 C 2.722656 -11.03125 2.015625 -12.640625 2.015625 -14.296875 C 2.015625 -15.554688 2.460938 -16.59375 3.359375 -17.40625 C 4.265625 -18.21875 5.617188 -18.625 7.421875 -18.625 Z M 7.421875 -18.625 "/></g></g></g><g fill="#000000" fill-opacity="1"><g transform="translate(46.250357, 39.969337)"><g><path d="M 2.8125 -5.59375 L 3.015625 -17.296875 C 3.015625 -19.390625 2.820312 -20.734375 2.4375 -21.328125 L 1.65625 -21.328125 C -1.582031 -21.328125 -3.203125 -22.484375 -3.203125 -24.796875 C -3.203125 -25.234375 -3.140625 -25.582031 -3.015625 -25.84375 L 8.5 -25.84375 C 11.738281 -25.84375 13.359375 -24.75 13.359375 -22.5625 C 13.359375 -22.09375 13.269531 -21.679688 13.09375 -21.328125 L 6.640625 -21.328125 C 7.648438 -20.546875 8.15625 -18.984375 8.15625 -16.640625 L 7.953125 -4.0625 C 7.953125 -2 8.144531 -0.644531 8.53125 0 C 8.09375 0.175781 7.550781 0.265625 6.90625 0.265625 C 4.175781 0.265625 2.8125 -1.6875 2.8125 -5.59375 Z M 2.8125 -5.59375 "/></g></g></g><g fill="#000000" fill-opacity="1"><g transform="translate(57.183247, 39.969337)"><g><path d="M 9.65625 5.0625 C 9.65625 4.414062 9.832031 3.90625 10.1875 3.53125 C 10.550781 3.15625 11.054688 2.96875 11.703125 2.96875 C 12.347656 2.96875 12.953125 3.25 13.515625 3.8125 C 14.085938 4.382812 14.375 4.984375 14.375 5.609375 C 14.375 6.242188 14.191406 6.75 13.828125 7.125 C 13.460938 7.5 12.953125 7.6875 12.296875 7.6875 C 11.640625 7.6875 11.035156 7.410156 10.484375 6.859375 C 9.929688 6.304688 9.65625 5.707031 9.65625 5.0625 Z M 15.609375 -7.5 L 10.203125 -7.21875 C 8.242188 -7.21875 6.535156 -7.945312 5.078125 -9.40625 C 3.617188 -10.863281 2.890625 -12.582031 2.890625 -14.5625 C 2.890625 -15.976562 3.363281 -17.082031 4.3125 -17.875 C 5.269531 -18.675781 6.625 -19.078125 8.375 -19.078125 C 10.132812 -19.078125 11.59375 -19.070312 12.75 -19.0625 C 13.90625 -19.050781 14.484375 -19.414062 14.484375 -20.15625 C 14.484375 -20.570312 14.253906 -20.960938 13.796875 -21.328125 L 2.15625 -21.328125 C -1.082031 -21.328125 -2.703125 -22.484375 -2.703125 -24.796875 C -2.703125 -25.234375 -2.640625 -25.582031 -2.515625 -25.84375 L 19.421875 -25.84375 C 22.671875 -25.84375 24.296875 -24.75 24.296875 -22.5625 C 24.296875 -22.09375 24.207031 -21.679688 24.03125 -21.328125 L 17.03125 -21.328125 C 18.007812 -20.296875 18.5 -19.222656 18.5 -18.109375 C 18.5 -17.003906 18.140625 -16.128906 17.421875 -15.484375 C 16.703125 -14.835938 15.660156 -14.515625 14.296875 -14.515625 L 10.234375 -14.5625 C 7.609375 -14.5625 6.296875 -14.046875 6.296875 -13.015625 C 6.296875 -12.210938 6.863281 -11.8125 8 -11.8125 L 13.5625 -12.171875 C 15.4375 -12.171875 17.0625 -11.472656 18.4375 -10.078125 C 19.820312 -8.691406 20.515625 -7.113281 20.515625 -5.34375 C 20.515625 -3.582031 19.914062 -2.191406 18.71875 -1.171875 C 17.519531 -0.160156 15.898438 0.34375 13.859375 0.34375 C 10.742188 0.34375 7.890625 -0.421875 5.296875 -1.953125 C 2.710938 -3.484375 1.421875 -4.941406 1.421875 -6.328125 C 1.421875 -6.972656 1.769531 -7.425781 2.46875 -7.6875 C 3.5 -6.582031 4.8125 -5.710938 6.40625 -5.078125 C 8.007812 -4.453125 9.660156 -4.140625 11.359375 -4.140625 C 13.054688 -4.140625 14.425781 -4.363281 15.46875 -4.8125 C 16.507812 -5.257812 17.03125 -5.816406 17.03125 -6.484375 C 17.03125 -7.160156 16.554688 -7.5 15.609375 -7.5 Z M 15.609375 -7.5 "/></g></g></g><g fill="#000000" fill-opacity="1"><g transform="translate(78.392269, 39.969337)"><g><path d="M 2.8125 -5.59375 L 3.015625 -18.109375 C 3.015625 -18.910156 2.988281 -19.984375 2.9375 -21.328125 L 1.65625 -21.328125 C -1.582031 -21.328125 -3.203125 -22.484375 -3.203125 -24.796875 C -3.203125 -25.234375 -3.140625 -25.582031 -3.015625 -25.84375 L 2.546875 -25.84375 C 1.878906 -30.5 0.285156 -32.828125 -2.234375 -32.828125 C -3.140625 -32.828125 -3.851562 -32.519531 -4.375 -31.90625 C -4.90625 -31.289062 -5.171875 -30.578125 -5.171875 -29.765625 C -5.171875 -28.953125 -4.96875 -28.222656 -4.5625 -27.578125 C -4.863281 -27.367188 -5.257812 -27.265625 -5.75 -27.265625 C -6.832031 -27.265625 -7.734375 -27.757812 -8.453125 -28.75 C -9.179688 -29.75 -9.546875 -30.929688 -9.546875 -32.296875 C -9.546875 -33.660156 -9.046875 -34.8125 -8.046875 -35.75 C -7.054688 -36.6875 -5.816406 -37.15625 -4.328125 -37.15625 C -1.804688 -37.15625 0.429688 -36.09375 2.390625 -33.96875 C 4.347656 -31.84375 5.84375 -29.132812 6.875 -25.84375 L 8.5 -25.84375 C 11.738281 -25.84375 13.359375 -24.75 13.359375 -22.5625 C 13.359375 -22.09375 13.269531 -21.679688 13.09375 -21.328125 L 7.875 -21.328125 C 8.0625 -20.140625 8.15625 -18.863281 8.15625 -17.5 L 7.953125 -4.0625 C 7.953125 -2 8.144531 -0.644531 8.53125 0 C 8.09375 0.175781 7.550781 0.265625 6.90625 0.265625 C 4.175781 0.265625 2.8125 -1.6875 2.8125 -5.59375 Z M 2.8125 -5.59375 "/></g></g></g><g fill="#000000" fill-opacity="1"><g transform="translate(89.32516, 39.969337)"><g/></g></g><g fill="#000000" fill-opacity="1"><g transform="translate(100.14215, 39.969337)"><g><path d="M 7.109375 -16.640625 L 7.03125 -13.515625 C 7.03125 -12.328125 7.207031 -11.441406 7.5625 -10.859375 C 7.925781 -10.285156 8.570312 -10 9.5 -10 C 10.425781 -10 11.3125 -10.328125 12.15625 -10.984375 C 13.007812 -11.640625 13.671875 -12.421875 14.140625 -13.328125 L 14.140625 -17.296875 C 14.140625 -19.390625 13.945312 -20.734375 13.5625 -21.328125 L 5.640625 -21.328125 C 6.617188 -20.578125 7.109375 -19.015625 7.109375 -16.640625 Z M 19.28125 -16.640625 L 19.078125 -4.0625 C 19.078125 -2 19.269531 -0.644531 19.65625 0 C 19.21875 0.175781 18.675781 0.265625 18.03125 0.265625 C 16.644531 0.265625 15.628906 -0.195312 14.984375 -1.125 C 14.335938 -2.050781 14.015625 -3.0625 14.015625 -4.15625 C 14.015625 -5.25 14.117188 -6.164062 14.328125 -6.90625 C 13.398438 -6.445312 12.445312 -6.21875 11.46875 -6.21875 C 9.28125 -6.21875 7.160156 -7.15625 5.109375 -9.03125 C 3.066406 -10.914062 2.046875 -12.785156 2.046875 -14.640625 C 2.046875 -17.316406 2.015625 -18.992188 1.953125 -19.671875 C 1.890625 -20.359375 1.726562 -20.910156 1.46875 -21.328125 C -1.4375 -21.398438 -2.890625 -22.554688 -2.890625 -24.796875 C -2.890625 -25.234375 -2.828125 -25.582031 -2.703125 -25.84375 L 19.65625 -25.84375 C 22.90625 -25.84375 24.53125 -24.75 24.53125 -22.5625 C 24.53125 -22.09375 24.4375 -21.679688 24.25 -21.328125 L 17.765625 -21.328125 C 18.773438 -20.546875 19.28125 -18.984375 19.28125 -16.640625 Z M 19.28125 -16.640625 "/></g></g></g><g fill="#000000" fill-opacity="1"><g transform="translate(122.239721, 39.969337)"><g><path d="M 2.8125 -5.59375 L 3.015625 -17.6875 C 3.015625 -18.664062 2.960938 -19.878906 2.859375 -21.328125 L 1.65625 -21.328125 C -1.582031 -21.328125 -3.203125 -22.484375 -3.203125 -24.796875 C -3.203125 -25.234375 -3.140625 -25.582031 -3.015625 -25.84375 L 2.125 -25.84375 C 2.070312 -26.070312 1.960938 -26.507812 1.796875 -27.15625 C 1.628906 -27.800781 1.519531 -28.25 1.46875 -28.5 C 1.289062 -29.40625 1.203125 -30.191406 1.203125 -30.859375 C 1.203125 -32.867188 1.929688 -34.421875 3.390625 -35.515625 C 4.859375 -36.609375 6.859375 -37.15625 9.390625 -37.15625 C 11.929688 -37.15625 14.890625 -36.609375 18.265625 -35.515625 C 21.640625 -34.421875 24.445312 -33.191406 26.6875 -31.828125 C 28.925781 -30.460938 30.046875 -29.367188 30.046875 -28.546875 C 30.046875 -27.898438 29.738281 -27.460938 29.125 -27.234375 C 26.394531 -28.984375 23.460938 -30.3125 20.328125 -31.21875 C 17.203125 -32.132812 14.316406 -32.59375 11.671875 -32.59375 C 7.804688 -32.59375 5.875 -31.128906 5.875 -28.203125 C 5.875 -27.242188 5.960938 -26.457031 6.140625 -25.84375 L 8.5 -25.84375 C 11.738281 -25.84375 13.359375 -24.75 13.359375 -22.5625 C 13.359375 -22.09375 13.269531 -21.679688 13.09375 -21.328125 L 7.6875 -21.328125 C 8 -20.140625 8.15625 -18.875 8.15625 -17.53125 L 7.953125 -4.0625 C 7.953125 -2 8.144531 -0.644531 8.53125 0 C 8.09375 0.175781 7.550781 0.265625 6.90625 0.265625 C 4.175781 0.265625 2.8125 -1.6875 2.8125 -5.59375 Z M 2.8125 -5.59375 "/></g></g></g><g fill="#000000" fill-opacity="1"><g transform="translate(133.211245, 39.969337)"><g><path d="M 14.40625 -12.625 L 14.453125 -17.296875 C 14.453125 -19.390625 14.253906 -20.734375 13.859375 -21.328125 L 2.15625 -21.328125 C -1.082031 -21.328125 -2.703125 -22.484375 -2.703125 -24.796875 C -2.703125 -25.234375 -2.640625 -25.582031 -2.515625 -25.84375 L 19.9375 -25.84375 C 23.175781 -25.84375 24.796875 -24.75 24.796875 -22.5625 C 24.796875 -22.09375 24.707031 -21.679688 24.53125 -21.328125 L 18.078125 -21.328125 C 19.078125 -20.546875 19.578125 -18.984375 19.578125 -16.640625 L 19.390625 -4.0625 C 19.390625 -2 19.582031 -0.644531 19.96875 0 C 19.53125 0.175781 18.988281 0.265625 18.34375 0.265625 C 16.925781 0.265625 15.894531 -0.210938 15.25 -1.171875 C 14.613281 -2.140625 14.296875 -3.273438 14.296875 -4.578125 C 14.296875 -5.878906 14.472656 -7.160156 14.828125 -8.421875 C 11.304688 -4.941406 8.460938 -3.203125 6.296875 -3.203125 C 5.367188 -3.203125 4.519531 -3.503906 3.75 -4.109375 C 2.976562 -4.710938 2.59375 -5.644531 2.59375 -6.90625 C 4.519531 -6.90625 7.390625 -8.503906 11.203125 -11.703125 C 9.503906 -12.941406 7.816406 -13.5625 6.140625 -13.5625 C 5.597656 -13.5625 5.101562 -13.414062 4.65625 -13.125 C 4.207031 -12.84375 3.878906 -12.472656 3.671875 -12.015625 C 1.972656 -12.734375 1.125 -13.851562 1.125 -15.375 C 1.125 -16.300781 1.484375 -17.046875 2.203125 -17.609375 C 2.921875 -18.179688 3.796875 -18.46875 4.828125 -18.46875 C 6.453125 -18.46875 8.019531 -17.9375 9.53125 -16.875 C 11.050781 -15.820312 12.675781 -14.40625 14.40625 -12.625 Z M 14.40625 -12.625 "/></g></g></g><g fill="#000000" fill-opacity="1"><g transform="translate(155.579238, 39.969337)"><g><path d="M 17.609375 -11.015625 L 17.5 -4.0625 C 17.5 -2 17.691406 -0.644531 18.078125 0 C 17.609375 0.175781 17.066406 0.265625 16.453125 0.265625 C 15.140625 0.265625 14.1875 -0.125 13.59375 -0.90625 C 13 -1.6875 12.703125 -2.550781 12.703125 -3.5 C 12.703125 -4.457031 12.796875 -5.25 12.984375 -5.875 C 12.109375 -5.070312 10.945312 -4.671875 9.5 -4.671875 C 7.363281 -4.671875 5.4375 -5.546875 3.71875 -7.296875 C 2.007812 -9.046875 1.15625 -11.039062 1.15625 -13.28125 C 1.15625 -14.75 1.640625 -16.03125 2.609375 -17.125 C 3.578125 -18.21875 4.804688 -18.765625 6.296875 -18.765625 C 7.347656 -18.765625 8.207031 -18.421875 8.875 -17.734375 C 9.550781 -17.054688 9.890625 -16.242188 9.890625 -15.296875 C 9.890625 -15.140625 9.875 -15 9.84375 -14.875 C 8.332031 -14.875 7.113281 -14.394531 6.1875 -13.4375 C 5.507812 -12.769531 5.171875 -12.023438 5.171875 -11.203125 C 5.171875 -10.378906 5.414062 -9.734375 5.90625 -9.265625 C 6.394531 -8.804688 6.972656 -8.578125 7.640625 -8.578125 C 9.441406 -8.578125 11.050781 -9.679688 12.46875 -11.890625 C 12.519531 -13.898438 12.546875 -15.828125 12.546875 -17.671875 C 12.546875 -19.515625 12.351562 -20.734375 11.96875 -21.328125 L 1.78125 -21.328125 C -1.46875 -21.328125 -3.09375 -22.484375 -3.09375 -24.796875 C -3.09375 -25.234375 -3.023438 -25.582031 -2.890625 -25.84375 L 27.34375 -25.84375 C 30.59375 -25.84375 32.21875 -24.75 32.21875 -22.5625 C 32.21875 -22.09375 32.125 -21.679688 31.9375 -21.328125 L 16.21875 -21.328125 C 16.96875 -20.703125 17.34375 -19.695312 17.34375 -18.3125 C 17.34375 -17.894531 17.304688 -17.519531 17.234375 -17.1875 C 18.160156 -17.988281 19.265625 -18.390625 20.546875 -18.390625 C 22.578125 -18.390625 24.460938 -17.5 26.203125 -15.71875 C 27.941406 -13.945312 28.8125 -11.953125 28.8125 -9.734375 C 28.8125 -8.265625 28.328125 -6.984375 27.359375 -5.890625 C 26.398438 -4.796875 25.171875 -4.25 23.671875 -4.25 C 22.617188 -4.25 21.753906 -4.585938 21.078125 -5.265625 C 20.410156 -5.953125 20.078125 -6.769531 20.078125 -7.71875 C 20.078125 -7.875 20.09375 -8.019531 20.125 -8.15625 C 21.664062 -8.15625 22.898438 -8.628906 23.828125 -9.578125 C 24.472656 -10.242188 24.796875 -10.992188 24.796875 -11.828125 C 24.796875 -12.671875 24.550781 -13.316406 24.0625 -13.765625 C 23.570312 -14.222656 22.992188 -14.453125 22.328125 -14.453125 C 20.597656 -14.453125 19.023438 -13.304688 17.609375 -11.015625 Z M 17.609375 -11.015625 "/></g></g></g><g fill="#000000" fill-opacity="1"><g transform="translate(185.86681, 39.969337)"><g><path d="M 2.8125 -5.59375 L 3.015625 -17.296875 C 3.015625 -19.390625 2.820312 -20.734375 2.4375 -21.328125 L 1.65625 -21.328125 C -1.582031 -21.328125 -3.203125 -22.484375 -3.203125 -24.796875 C -3.203125 -25.234375 -3.140625 -25.582031 -3.015625 -25.84375 L 8.5 -25.84375 C 11.738281 -25.84375 13.359375 -24.75 13.359375 -22.5625 C 13.359375 -22.09375 13.269531 -21.679688 13.09375 -21.328125 L 6.640625 -21.328125 C 7.648438 -20.546875 8.15625 -18.984375 8.15625 -16.640625 L 7.953125 -4.0625 C 7.953125 -2 8.144531 -0.644531 8.53125 0 C 8.09375 0.175781 7.550781 0.265625 6.90625 0.265625 C 4.175781 0.265625 2.8125 -1.6875 2.8125 -5.59375 Z M 2.8125 -5.59375 "/></g></g></g></svg>